<?xml version="1.0" ?><svg enable-background="new 0 0 64 64" id="Layer_1" version="1.1" viewBox="0 0 64 64" xml:space="preserve" xmlns="http://www.w3.org/2000/svg" xmlns:xlink="http://www.w3.org/1999/xlink" style="transform: rotate(-90deg);"><g><path d="M57.4140625,35.5859375l-17-17c-0.78125-0.78125-2.046875-0.78125-2.828125,0s-0.78125,2.046875,0,2.828125L53.171875,37   L32,58.171875L10.828125,37l15.5859375-15.5859375c0.78125-0.78125,0.78125-2.046875,0-2.828125s-2.046875-0.78125-2.828125,0   l-17,17c-0.78125,0.78125-0.78125,2.046875,0,2.828125l24,24C30.9765625,62.8046875,31.4882813,63,32,63   s1.0234375-0.1953125,1.4140625-0.5859375l24-24C58.1953125,37.6328125,58.1953125,36.3671875,57.4140625,35.5859375z"/><path d="M25.6298828,31.5185547c-0.8173828-0.7431641-2.0820313-0.6816406-2.8251953,0.1376953   c-0.7421875,0.8173828-0.6806641,2.0830078,0.1376953,2.8251953l7.7138672,7C31.0371094,41.8271484,31.5185547,42,32,42   s0.9628906-0.1728516,1.34375-0.5185547l7.7138672-7c0.8183594-0.7421875,0.8798828-2.0078125,0.1376953-2.8251953   c-0.7431641-0.8183594-2.0068359-0.8798828-2.8251953-0.1376953L32,37.2988281L25.6298828,31.5185547z"/><path d="M32,34c1.1044922,0,2-0.8955078,2-2V3c0-1.1044922-0.8955078-2-2-2s-2,0.8955078-2,2v29C30,33.1044922,30.8955078,34,32,34   z"/></g></svg>